<?xml version="1.0" encoding="UTF-8"?>
<!DOCTYPE svg PUBLIC "-//W3C//DTD SVG 1.1//EN" "http://www.w3.org/Graphics/SVG/1.1/DTD/svg11.dtd">
<!-- Creator: CorelDRAW 2017 -->
<svg xmlns="http://www.w3.org/2000/svg" xml:space="preserve" width="8.77413in" height="3.77083in" version="1.1" style="shape-rendering:geometricPrecision; text-rendering:geometricPrecision; image-rendering:optimizeQuality; fill-rule:evenodd; clip-rule:evenodd"
viewBox="0 0 8774.13 3770.83"
 xmlns:xlink="http://www.w3.org/1999/xlink">
 <defs>
  <style type="text/css">
   <![CDATA[
    .fil0 {fill:#FEFEFE}
    .fil1 {fill:#FFCE7F}
    .fil2 {fill:#FFCE7F}
   ]]>
  </style>
 </defs>
 <g id="Layer_x0020_1">
  <metadata id="CorelCorpID_0Corel-Layer"/>
  <path class="fil0" d="M1384.12 662.03c46.06,34.66 69.45,82.93 77.78,139.05 22.18,214.3 -52.01,446.46 -177.57,619.32 -1.43,2 -2.85,4 -4.32,6.06 -33.09,46.37 -72.24,86.21 -112.68,126.15 -5.5,5.44 -10.96,10.9 -16.43,16.38 1.7,2.14 3.39,4.28 5.14,6.49 92.18,117.96 164.94,250.31 233.45,383.04 6,11.58 12.11,23.1 18.21,34.63 9.52,18 18.89,36.07 28.18,54.19 30.48,59.45 30.48,59.45 62.15,118.28 8.56,15.51 16.97,31.09 25.24,46.75 47.87,91.59 47.87,91.59 103.7,178.4 2.06,2.89 4.12,5.77 6.24,8.74 58.98,80.54 118.7,122.68 213.17,153.11 71.52,23.1 138.6,46.49 175.56,117.13 22.01,43.54 21.02,100.96 6.49,146.91 -13.07,33.43 -28.64,62.74 -52.73,89.62 -2.15,2.55 -4.31,5.09 -6.53,7.72 -43.42,50.36 -105.24,86.86 -172.39,92.35 -131.41,7.25 -246.17,-55.43 -345.69,-136.46 -2.99,-2.37 -5.98,-4.74 -9.05,-7.18 -26.16,-21.26 -49.91,-45.07 -73.77,-68.82 -1.7,-1.68 -3.4,-3.36 -5.15,-5.09 -21.63,-21.48 -41.8,-43.46 -60.62,-67.5 -1.72,-2.14 -3.44,-4.29 -5.21,-6.5 -88.84,-111.19 -150.41,-244.9 -207.13,-374.63 -1.46,-3.34 -1.46,-3.34 -2.95,-6.74 -0.98,-2.23 -1.95,-4.46 -2.95,-6.76 -11.98,-27.32 -24.51,-54.39 -37.05,-81.46 -1.16,-2.5 -2.31,-5 -3.51,-7.57 -5.65,-12.19 -11.3,-24.38 -16.96,-36.56 -5.68,-12.23 -11.33,-24.48 -16.98,-36.72 -15.39,-33.34 -31,-66.54 -47.06,-99.56 -44.9,-92.36 -87.04,-185.85 -119.62,-283.35 -1.2,-3.61 -2.41,-7.21 -3.65,-10.93 -8.34,-25.51 -15.44,-51.22 -22.12,-77.2 -2.34,-0.23 -4.68,-0.45 -7.09,-0.69 -10.72,-1.06 -21.43,-2.18 -32.15,-3.29 -3.68,-0.35 -7.35,-0.71 -11.14,-1.08 -25.67,-2.71 -51.24,-5.48 -72.06,-22.04 -1.9,-1.47 -3.8,-2.93 -5.76,-4.44 -5.62,-5.2 -9.81,-10.81 -14.33,-16.97 -0.51,38.97 1.09,77.8 2.79,116.72 0.3,7.02 0.59,14.04 0.89,21.05 0.97,22.69 1.96,45.37 2.95,68.05 0.34,7.84 0.69,15.68 1.03,23.52 4.54,103.88 9.42,207.74 15.28,311.56 0.15,2.76 0.31,5.53 0.47,8.37 4.27,75.5 9.02,150.94 15.51,226.29 2.41,28.53 4,56.85 4.06,85.49 0.01,2.74 0.02,5.48 0.02,8.31 -0.28,44.74 -13.74,83.8 -44.7,117.11 -42.52,39.56 -95.71,54.71 -152.94,53.64 -64.4,-3.63 -122.98,-29.39 -167.35,-76.57 -40.02,-47.36 -49.81,-101.41 -55.15,-161.09 -0.6,-6.32 -1.2,-12.64 -1.81,-18.96 -1.74,-18.36 -3.39,-36.74 -5.02,-55.11 -1,-11.2 -2,-22.4 -3.02,-33.6 -16.46,-182.37 -30.67,-364.85 -37.27,-547.89 -0.26,-7.12 -0.53,-14.24 -0.8,-21.36 -10.57,-282.49 -1.02,-567.15 60.04,-971.19 0.43,-2.41 0.85,-4.81 1.29,-7.29 8.88,-49.9 20.41,-95.42 63.53,-126.52 32.04,-19.17 69.06,-19.51 105.28,-13.2 47.78,13.57 84.82,42.6 111.58,83.98 22.39,40.45 23.19,93.39 28.19,138.45 0.38,3.43 0.77,6.85 1.16,10.38 21.58,193.96 35.77,389.26 43.89,584.24 0.64,14.21 2.13,28.1 4.04,42.19 1.22,-1.66 2.43,-3.31 3.69,-5.01 20.17,-26.76 43.71,-49.08 69.09,-70.8 3.42,-2.97 6.83,-5.94 10.24,-8.91 18.28,-15.91 36.62,-31.75 55.14,-47.38 1.6,-1.35 3.2,-2.7 4.85,-4.1 6.57,-5.55 13.14,-11.1 19.72,-16.63 21.46,-18.06 42.46,-36.53 62.99,-55.65 1.97,-1.82 3.94,-3.65 5.97,-5.53 13.66,-12.83 26.11,-26.39 38.19,-40.72 1.4,-1.65 2.8,-3.31 4.25,-5.02 55.7,-66.65 94.96,-145.21 116.47,-229.24 0.89,-3.43 0.89,-3.43 1.79,-6.93 9.36,-38.74 11.85,-77.04 11.53,-116.69 -0.06,-7.2 -0.06,-14.41 -0.06,-21.61 -0.05,-20.19 -0.19,-40.19 -2.87,-60.24 -5.86,-49.04 -0.45,-95.87 29.6,-136.43 70.93,-85.46 200.01,-74.1 284.77,-18.46z"/>
  <path class="fil0" d="M2737.79 1332.28c67.45,51.76 92.46,151.74 103.46,231.63 1.85,14.81 3.41,29.64 4.76,44.5 0.21,2.35 0.43,4.7 0.65,7.11 6.89,81.22 1.29,163.03 -3.49,244.2 -7.41,126.3 -9.76,252.36 -10.8,378.86 -2.03,245.78 -2.03,245.78 -8.72,355.17 -0.2,3.33 -0.4,6.65 -0.6,10.08 -16.48,273.02 -101.78,536.93 -319.93,778.48 -5.89,5.2 -11.91,10.2 -17.96,15.21 -2.75,2.44 -5.5,4.89 -8.33,7.41 -111.15,98.27 -255.51,148.15 -403.42,139.99 -76.81,-5.3 -144.87,-25.71 -200.04,-82.57 -40.12,-47.04 -55.63,-106.88 -52.31,-167.92 7.52,-64.26 34.57,-119.12 81.87,-163.75 30.15,-23.09 61.59,-34.35 98.36,-42.07 74.86,-16.69 143.97,-42.28 201.85,-94.39 2.94,-2.65 5.89,-5.29 8.93,-8.02 101.74,-96.78 137.38,-251.38 148.76,-386.19 0.07,-6.06 0.1,-12.13 0,-18.19 -3.16,1.38 -3.16,1.38 -6.39,2.78 -21.61,8.91 -43.1,15.33 -65.82,20.72 -2.68,0.64 -5.35,1.28 -8.11,1.93 -102.01,23.46 -213.78,6.29 -303.25,-47.93 -17.96,-11.24 -34.13,-24.2 -50.06,-38.15 -3.54,-2.94 -3.54,-2.94 -7.15,-5.93 -18.22,-15.42 -33,-32.72 -47.43,-51.68 -2.15,-2.79 -4.29,-5.57 -6.5,-8.44 -87.28,-119.37 -112.42,-272.13 -112.52,-416.85 0,-2.71 -0,-5.43 -0,-8.22 0.22,-185.31 40.44,-370.94 118.46,-539.13 1.02,-2.22 2.04,-4.44 3.09,-6.72 9.81,-20.41 21.89,-40.53 41.44,-52.78 2.16,-1.4 4.31,-2.8 6.54,-4.24 24.99,-13.08 52.99,-13.48 80.31,-7.81 24.81,8.07 43.75,21.48 55.86,44.92 8.49,17.65 12.13,35.28 15.35,54.5 0.94,5.37 0.94,5.37 1.89,10.85 18.9,111.79 20.68,224.61 22.15,337.69 0.9,68.41 2.81,136.67 7.04,204.95 0.36,5.88 0.71,11.76 1.06,17.63 4.32,79.93 4.32,79.93 35.71,152.3 15.98,13.93 29.83,21.46 51.55,21.23 30.98,-5.52 54.84,-26.65 72.78,-51.55 25.35,-39.01 43.04,-82.08 58.62,-125.74 12.51,-34.85 31.26,-73.19 64.79,-92.53 8.32,-4.94 14.68,-8.96 18.6,-18.03 1.57,-7.15 2.54,-14.17 3.34,-21.44 0.56,-4.04 0.56,-4.04 1.13,-8.16 0.8,-5.81 1.56,-11.61 2.28,-17.43 1.95,-15.53 4.22,-31.01 6.46,-46.5 0.67,-4.71 0.67,-4.71 1.35,-9.52 23.76,-164.67 62.41,-362.07 180.01,-485.46 1.63,-1.85 3.25,-3.7 4.93,-5.61 11.13,-12.19 23.76,-21.09 37.53,-30.02 2.64,-1.72 2.64,-1.72 5.34,-3.47 27.7,-17.4 54.23,-24.83 86.57,-15.67z"/>
  <path class="fil0" d="M5674.68 701.15c89.95,65.11 99.13,228.78 115.8,331.1 29.33,183.34 38.17,369.09 47.21,554.31 0.37,7.56 0.74,15.11 1.11,22.67 0.46,9.28 0.91,18.57 1.34,27.85 1.06,21.85 2.38,43.59 4.92,65.33 2.28,-3.26 4.55,-6.53 6.89,-9.89 37.67,-53.83 78.2,-105.14 120.83,-155.13 8.57,-10.07 16.94,-20.27 25.22,-30.57 13.26,-16.31 27.45,-31.65 41.79,-47.02 8.3,-8.9 16.32,-18 24.28,-27.2 6.75,-7.7 13.64,-15.26 20.54,-22.81 8.69,-9.52 17.32,-19.08 25.78,-28.81 8.46,-9.73 17.09,-19.28 25.78,-28.81 16.6,-18.22 32.8,-36.73 48.83,-55.45 3.1,-3.61 6.2,-7.23 9.31,-10.84 8.28,-9.63 16.48,-19.31 24.57,-29.1 31.15,-37.36 67.36,-71.48 118.03,-76.62 59.34,-2.98 106.68,12.22 152.34,51.2 44.7,40.82 69.27,90.48 75.16,150.42 1.95,45.85 -16.76,93.07 -47.04,127.12 -7.59,8.11 -15.44,15.93 -23.38,23.69 -3.01,3 -6.01,6 -9,9 -5.61,5.62 -11.24,11.21 -16.89,16.8 -8.28,8.38 -15.96,17.12 -23.61,26.07 -7.19,8.13 -14.91,15.65 -22.71,23.18 -5.74,5.91 -11.15,11.94 -16.55,18.16 -11.21,12.91 -22.86,25.35 -34.62,37.75 -15.15,16.02 -30.21,32.09 -45.11,48.33 -10.64,11.59 -21.45,22.91 -32.69,33.92 -4.76,4.85 -9.1,9.86 -13.47,15.06 -16.14,18.54 -33.72,35.71 -51.12,53.06 -6.03,6.01 -12.04,12.04 -18.04,18.06 -3.86,3.86 -7.72,7.72 -11.59,11.57 -1.78,1.78 -3.56,3.57 -5.39,5.41 -9.48,9.43 -19.1,18.15 -29.74,26.29 4.11,10.87 8.96,20.82 14.69,30.93 1.75,3.11 3.5,6.23 5.31,9.44 1.91,3.38 3.81,6.76 5.78,10.23 17.24,30.7 33.94,61.65 50.31,92.81 45.83,87.21 97.07,169.71 154.95,249.47 15.59,21.53 31.1,43.11 46.44,64.82 2.03,2.83 4.06,5.67 6.16,8.59 31.81,45.3 47.4,93.03 37.81,148.15 -13.63,58.13 -49.77,105.96 -100.07,137.59 -50.31,28.99 -104.31,42.81 -162.04,29.94 -51.35,-15.4 -84.37,-52.29 -115.43,-93.71 -4.84,-6.37 -9.8,-12.64 -14.78,-18.9 -24.65,-31.01 -47.27,-62.87 -68.59,-96.24 -2.34,-3.63 -2.34,-3.63 -4.72,-7.33 -63.35,-98.62 -156,-244.23 -156,-365.66 -3,0 -6,0 -9.09,0 0.01,3.92 0.01,7.83 0.02,11.86 0.06,37.57 0.11,75.15 0.14,112.73 0.02,19.3 0.04,38.6 0.07,57.9 0.09,51.37 0.05,102.74 -0.23,154.11 -0.02,3.38 -0.04,6.76 -0.06,10.24 -0.11,19.1 -0.3,38.19 -0.59,57.29 -0.08,5.69 -0.15,11.39 -0.19,17.08 -0.5,61.39 -10.85,113.45 -54.65,159.48 -12.74,11.81 -26.3,20.62 -41.56,28.83 -3.87,2.09 -3.87,2.09 -7.81,4.23 -61.68,30.56 -135.43,33.69 -200.66,13.4 -58.49,-21.35 -99.25,-53.89 -126.04,-110.69 -14.08,-33.88 -14.72,-68.03 -13.35,-104.22 0.14,-4.18 0.29,-8.35 0.43,-12.52 1.99,-56.18 4.61,-112.34 7.09,-168.5 12.07,-273.44 22.19,-546.93 8.49,-926.34 -4.54,-94.78 -5.49,-189.47 -5.67,-284.35 -0.02,-10.22 -0.06,-20.45 -0.11,-30.68 -0.28,-66.54 0.03,-132.9 4.89,-199.3 0.16,-2.41 0.33,-4.81 0.5,-7.28 3.93,-55.65 18.11,-101.12 59.3,-140.67 54.02,-42.39 130.74,-54.17 190.51,-16.83z"/>
  <path class="fil0" d="M7560.19 1490.11c9.87,8.75 19.24,17.94 28.5,27.33 2.27,2.24 4.54,4.47 6.87,6.78 35.17,36.83 55.53,82.74 62.87,132.72 1.8,-0.84 3.59,-1.68 5.44,-2.55 2.4,-1.1 4.79,-2.2 7.26,-3.33 2.36,-1.09 4.72,-2.18 7.15,-3.3 32.07,-12.7 77.32,-10.25 108.82,2.34 33.57,16.38 57.96,39.71 71.39,75.03 6.24,21.32 9.45,43.22 12.21,65.23 0.44,3.21 0.44,3.21 0.88,6.48 2.85,23.8 2.83,47.72 2.88,71.66 0.03,7.3 0.13,14.59 0.22,21.89 0.62,88.07 -14.69,175.8 -27.46,262.71 -16.6,113.22 -28.41,224.93 -3.44,337.93 13.41,61.15 12.75,109.09 -21.6,163.56 -21.44,30.57 -53.5,50.56 -87.94,63.68 -3.55,1.46 -3.55,1.46 -7.17,2.94 -46.8,16.12 -103.69,9.48 -147.44,-11.68 -56.31,-28.81 -95.61,-73.03 -115.28,-133.78 -9.71,-34.09 -15.3,-66.98 -15.21,-102.48 0.01,-3.53 0.02,-7.06 0.02,-10.69 0.01,-2.68 0.02,-5.36 0.03,-8.12 -3.47,1.81 -3.47,1.81 -7,3.65 -130.22,67.42 -265.63,113.85 -411.47,132.81 -2.28,0.31 -4.57,0.63 -6.92,0.96 -24.72,3 -49.65,2.74 -74.52,2.8 -7.92,0.03 -15.83,0.12 -23.75,0.22 -43.74,0.28 -87.33,-3.46 -128.88,-18.2 -2.22,-0.77 -4.45,-1.54 -6.74,-2.33 -37.37,-13.48 -69.48,-32.33 -98.83,-59.26 -2.77,-2.53 -5.54,-5.05 -8.4,-7.65 -96.49,-92.04 -129.95,-235.4 -133.98,-364.45 -4.27,-202.48 67.36,-398.51 207.8,-545.25 1.43,-1.48 2.85,-2.97 4.32,-4.5 2.59,-2.72 5.19,-5.44 7.87,-8.24 180.81,-185.39 529.06,-258.94 791.48,-94.89zm-14.57 277.51c-21.72,1.85 -43.33,1.76 -65.1,1.55 -7.33,-0.07 -14.67,-0.11 -22,-0.15 -20.83,-0.1 -41.65,-0.22 -62.48,-0.42 -110.27,-1.34 -110.27,-1.34 -216.73,24.78 -2.99,1.13 -2.99,1.13 -6.04,2.27 -45.2,17.39 -83.55,42.84 -118.3,76.57 -2.26,2.04 -4.52,4.07 -6.85,6.17 -51.96,48.43 -86.44,124.43 -90.82,194.97 -0.29,10.79 -0.35,21.56 -0.32,32.35 -0.05,3.62 -0.1,7.24 -0.15,10.97 -0.01,23.02 2.83,43.01 10.2,64.84 30.38,4.59 58.58,4.16 88.51,-3.04 4.24,-1 4.24,-1 8.57,-2.02 49.66,-12.16 98.36,-27.81 143.19,-52.64 5.2,-2.87 10.45,-5.63 15.71,-8.38 48.31,-26.13 91.33,-61.18 132.16,-97.68 4.1,-3.65 4.1,-3.65 8.28,-7.37 7.38,-6.61 14.71,-13.26 22.04,-19.93 4.93,-4.43 9.85,-8.85 14.78,-13.27 2.5,-2.26 5.01,-4.53 7.59,-6.86 5.5,-4.96 11.02,-9.89 16.56,-14.81 30.07,-26.99 57.45,-56.4 83.77,-87.05 3.2,-3.7 6.47,-7.35 9.78,-10.94 13,-14.26 23.58,-29.46 34.09,-45.63 8.27,-12.48 17.13,-24.48 26.07,-36.5 4.74,-5.44 4.74,-5.44 4.45,-9.35 -12.5,-0.28 -24.56,0.27 -37,1.53z"/>
  <path class="fil0" d="M3757.25 1274.85c6.67,4.93 13.21,10.01 19.71,15.16 3.11,2.44 6.22,4.88 9.43,7.39 42.52,34.26 82.06,73.83 114.26,117.97 3.67,5.02 7.4,9.99 11.15,14.96 31.48,42.31 58.07,88.2 80.67,135.8 2.84,5.93 5.78,11.81 8.74,17.69 93.52,188.56 110.77,407.22 45.63,607.1 -8.83,25.7 -19.37,50.66 -30.31,75.52 -1.46,3.38 -1.46,3.38 -2.94,6.82 -32.74,75.48 -79.19,143.93 -133.52,205.44 -2.19,2.53 -4.38,5.06 -6.64,7.67 -29.56,33.58 -61.09,64.98 -96.46,92.41 -4.36,3.52 -4.36,3.52 -8.8,7.12 -99.46,79.15 -226.58,138.84 -355.09,144.5 -4.16,0.19 -4.16,0.19 -8.41,0.38 -66.43,1.46 -127.89,-13.27 -185.67,-45.86 -2.92,-1.61 -5.83,-3.23 -8.83,-4.89 -55.67,-33.09 -98.29,-82.25 -130.66,-137.63 -1.13,-1.94 -2.26,-3.87 -3.43,-5.87 -49.34,-85.74 -70.31,-182.15 -84.5,-279.18 -0.75,-4.9 -0.75,-4.9 -1.52,-9.89 -15.6,-105.28 -14.25,-218.52 1.52,-323.67 0.42,-3.05 0.84,-6.1 1.28,-9.25 27.7,-199.12 111.06,-383.65 252.11,-527.3 3.49,-3.61 3.49,-3.61 7.05,-7.28 25.24,-25.33 53.53,-44.1 88.28,-53.56 3,0 6.01,0 9.1,0 0.8,-2.66 1.59,-5.32 2.42,-8.06 16.65,-46.22 54.72,-79.3 96.89,-102.05 102.42,-47.87 221.79,-3.35 308.55,58.57zm-292.63 300.2c-67.53,145.94 -130.71,303.95 -130.9,467.16 -0.01,3.1 -0.02,6.2 -0.03,9.39 -0.02,6.53 -0.02,13.06 -0.02,19.59 -0.01,9.77 -0.06,19.53 -0.12,29.3 -0.81,118.93 -0.81,118.93 43.13,226.6 3.15,4.4 3.15,4.4 6.36,8.89 5.92,8.19 11.88,16.34 17.9,24.46 94.91,-22.17 176.52,-97.71 227.86,-178.28 7.44,-12.08 14.22,-24.45 20.8,-37.02 2.76,-5.27 2.76,-5.27 5.57,-10.64 48.31,-95.93 56.61,-207.81 23.44,-309.81 -20.45,-58.56 -52.94,-105.38 -95.72,-149.57 -2.53,-2.65 -5.07,-5.31 -7.68,-8.04 -14.87,-15.27 -30.43,-29.09 -47.08,-42.38 -6.51,-5.25 -12.91,-10.56 -19.26,-15.99 -2.62,-2.24 -2.62,-2.24 -5.3,-4.54 -3.38,-2.91 -6.76,-5.82 -10.13,-8.75 -9.17,-7.85 -18.41,-14.3 -28.81,-20.37z"/>
  <path class="fil0" d="M5152.07 1383.13c66.17,55.96 97.71,137.69 107.74,222.25 0.26,2.15 0.52,4.3 0.78,6.51 9.94,93.84 1.2,190.01 -4.49,283.9 -0.57,9.5 -1.15,19 -1.72,28.51 -0.15,2.43 -0.3,4.86 -0.44,7.36 -2.66,44.25 -4.88,88.52 -6.97,132.79 -0.16,3.31 -0.31,6.63 -0.47,10.04 -0.64,13.49 -1.28,26.99 -1.91,40.48 -6.53,138.61 -13.17,276.97 -28.93,414.9 -0.3,2.67 -0.61,5.33 -0.92,8.08 -13.32,115.2 -13.32,115.2 -48.93,149.98 -41.64,32.85 -85.17,36.83 -136.46,33.35 -46.91,-6.63 -88.31,-32.56 -118.7,-68.17 -27.15,-36.87 -30.99,-72.51 -30.65,-117 0.01,-2.23 0.02,-4.47 0.03,-6.77 0.75,-140.15 15.34,-279.63 29.37,-418.95 0.33,-3.28 0.66,-6.57 1,-9.95 3.34,-33.21 6.7,-66.42 10.11,-99.63 9.3,-90.47 17.12,-180.94 22.63,-271.73 0.19,-3.08 0.19,-3.08 0.39,-6.23 1.19,-20.03 1.26,-40.02 1.1,-60.07 -0.02,-5.29 -0.02,-5.29 -0.04,-10.69 -0.04,-8.5 -0.08,-17 -0.15,-25.51 -2.35,1.42 -4.71,2.83 -7.13,4.29 -5.05,3.02 -10.11,6.01 -15.21,8.95 -26.45,15.91 -48.8,35.94 -71.67,56.5 -2.9,2.59 -5.8,5.19 -8.79,7.86 -4.99,4.48 -9.96,8.97 -14.93,13.48 -5.98,5.37 -12.05,10.59 -18.17,15.8 -26.39,23.07 -50.81,48.15 -72.6,75.61 -7.7,9.65 -15.66,19.05 -23.68,28.44 -9.67,11.36 -19.18,22.79 -28.43,34.5 -22.44,28.17 -45.71,55.34 -71.07,80.93 -1.73,1.76 -3.46,3.52 -5.24,5.33 -1.67,1.66 -3.34,3.32 -5.06,5.03 -1.45,1.44 -2.9,2.89 -4.4,4.38 -7.39,6.31 -15.43,11.45 -23.58,16.73 6.5,96.92 15.87,193.41 26.35,289.97 0.46,4.29 0.46,4.29 0.94,8.66 3.14,28.91 6.3,57.81 9.48,86.71 0.24,2.17 0.48,4.34 0.72,6.58 0.96,8.74 1.94,17.48 2.94,26.22 5.81,50.52 8.23,102.83 -23.19,145.71 -30.98,37.73 -68.77,57.37 -117.31,63.85 -60.63,3.46 -121.23,-9.09 -168.45,-49.51 -20.37,-18.37 -38.33,-37.52 -49.89,-62.69 -1.99,-4.31 -1.99,-4.31 -4.02,-8.7 -16.24,-41.45 -18.57,-86.89 -23.28,-130.8 -0.3,-2.74 -0.59,-5.48 -0.91,-8.3 -20.52,-188.47 -36.86,-381.63 -17.29,-570.89 0.39,-3.87 0.78,-7.74 1.19,-11.72 32.69,-316.29 32.69,-316.29 119.74,-393.16 24.2,-16.89 51.6,-21.83 80.59,-18.42 23.97,4.36 42.58,11.83 62.3,26.06 3.19,2.19 6.38,4.38 9.67,6.63 45.11,45.1 51.45,118.41 63.11,178.34 1.37,-1.79 2.75,-3.59 4.17,-5.43 9.86,-12.78 19.77,-25.31 30.71,-37.21 8.33,-9.13 16.57,-18.3 24.64,-27.67 131.37,-150.4 371.18,-259.79 545.37,-115.55z"/>
  <path class="fil0" d="M8328.22 892.01c29.66,21.73 45.82,50.46 54.96,85.67 1.04,7.54 1.89,15.1 2.58,22.69 0.19,2.1 0.39,4.21 0.59,6.38 0.4,4.43 0.8,8.86 1.18,13.29 0.57,6.67 1.19,13.32 1.81,19.98 2.24,24.74 3.53,49.26 2.94,74.12 2.48,0.4 4.97,0.79 7.53,1.2 172.65,27.66 172.65,27.66 214.59,83.73 32.65,49.81 40.69,110.67 29.49,168.76 -11.91,52.33 -38.27,97.63 -82.94,128.39 -52.7,30.28 -110.8,23.87 -168.68,15.17 0.02,2.89 0.04,5.77 0.05,8.74 0.12,28.61 -0.43,57.15 -1.31,85.74 -1.78,58.37 -2.34,116.71 -2.33,175.1 0,10.17 -0.02,20.34 -0.06,30.51 -0.38,94.81 1.68,189.87 12,284.2 0.25,2.36 0.5,4.72 0.76,7.15 18.37,172.06 60.43,341.44 143.66,494.15 28.93,53.66 40.98,109.58 23.57,169.63 -20.1,58.85 -61.05,101.79 -115.68,130.58 -53.61,23.48 -114.07,30.48 -169.91,9.85 -92.24,-37.86 -139.14,-138.09 -175.79,-225.16 -106.66,-259.56 -117.73,-538.12 -90.97,-1234.19 -2.74,-0.89 -5.49,-1.77 -8.32,-2.68 -100.3,-32.37 -100.3,-32.37 -140.42,-52.07 -6.25,-3.04 -12.56,-5.92 -18.88,-8.8 -39.8,-18.45 -69.96,-41.52 -87.07,-83.3 -15.35,-43.57 -11.14,-87.3 7.24,-129.23 19.05,-35.13 49.01,-54.83 86.02,-66.8 15.06,-4.33 30.17,-6.97 45.65,-9.27 3.28,-0.5 6.56,-1 9.93,-1.52 61.7,-9.09 122.38,-11.13 184.71,-10.24 0.38,-2.47 0.38,-2.47 0.77,-4.99 4,-22.81 11.23,-44.23 19.01,-65.96 2.2,-6.16 4.35,-12.33 6.49,-18.52 15.68,-44.58 34.9,-86.31 77.95,-110.02 42.86,-19.84 88.49,-17.48 128.9,7.68z"/>
  <path class="fil1" d="M5706.33 2868.94c3.04,0.02 6.07,0.03 9.2,0.05 60.31,0.94 115.78,19.74 159.29,62.69 33.93,35.24 33.93,35.24 33.93,50.41 9.14,-8.77 16.89,-18.04 24.64,-28.05 37.76,-46.33 93.43,-75 152.41,-83.3 79.6,-6.19 147.94,5.01 211.26,55.69 48.46,44.11 63.17,108.32 66.55,170.89 0.36,13.77 0.39,27.52 0.34,41.29 0,3.88 0,7.76 0,11.76 0,10.49 -0.02,20.98 -0.04,31.47 -0.02,11.02 -0.02,22.04 -0.03,33.06 -0.01,20.8 -0.03,41.6 -0.06,62.4 -0.04,23.71 -0.05,47.42 -0.07,71.13 -0.03,48.71 -0.09,97.42 -0.15,146.13 -35.03,0 -70.05,0 -106.13,0 -0.07,-17.17 -0.07,-17.17 -0.14,-34.68 -0.15,-37.92 -0.35,-75.84 -0.58,-113.76 -0.14,-22.98 -0.26,-45.96 -0.33,-68.93 -0.07,-20.05 -0.17,-40.09 -0.31,-60.14 -0.07,-10.6 -0.13,-21.19 -0.15,-31.79 -0.02,-11.88 -0.11,-23.76 -0.21,-35.64 0.01,-5.17 0.01,-5.17 0.01,-10.45 -0.56,-48.8 -11.53,-90.11 -45.41,-125.97 -31.28,-28.75 -70.91,-39.89 -112.73,-40.33 -47.74,2.07 -89.8,16.16 -122.93,51.5 -31.04,36.53 -36.01,79.38 -36.24,125.59 -0.03,3.73 -0.06,7.46 -0.09,11.3 -0.08,10.17 -0.15,20.35 -0.2,30.52 -0.07,10.65 -0.15,21.3 -0.23,31.96 -0.15,20.15 -0.29,40.29 -0.42,60.44 -0.15,22.94 -0.32,45.89 -0.48,68.84 -0.35,47.18 -0.67,94.36 -0.98,141.54 -34.02,0 -68.05,0 -103.1,0 -0.06,-10.86 -0.12,-21.72 -0.18,-32.91 -0.2,-36.04 -0.44,-72.07 -0.69,-108.09 -0.15,-21.83 -0.3,-43.66 -0.41,-65.49 -0.1,-19.05 -0.22,-38.09 -0.37,-57.15 -0.07,-10.06 -0.14,-20.13 -0.18,-30.2 2.19,-99.91 2.19,-99.91 -43.66,-185.28 -31.55,-30.09 -71.3,-42.19 -114.32,-42.55 -38.87,1.6 -72,11.25 -104.02,33.45 -3.19,2.19 -6.38,4.38 -9.67,6.63 -28.07,28.07 -45.13,67.36 -45.4,107.08 -0.03,3.31 -0.06,6.63 -0.09,10.04 -0.02,3.6 -0.04,7.21 -0.05,10.92 -0.03,3.81 -0.06,7.63 -0.09,11.57 -0.08,10.44 -0.15,20.89 -0.21,31.33 -0.07,10.92 -0.15,21.85 -0.23,32.77 -0.15,20.67 -0.29,41.35 -0.42,62.02 -0.15,23.54 -0.32,47.08 -0.49,70.62 -0.34,48.41 -0.67,96.83 -0.98,145.24 -35.03,0 -70.05,0 -106.13,0 0,-201.14 0,-402.28 0,-609.51 35.02,0 70.05,0 106.13,0 1.5,34.52 1.5,34.52 3.03,69.74 5.69,-6 11.38,-12.01 17.25,-18.19 47.31,-48.01 107.78,-68.05 174.55,-67.66z"/>
  <path class="fil1" d="M3381.23 2802.8c18.76,0.19 18.76,0.19 37.91,0.38 0,32.02 0,64.04 0,97.04 -12.67,0.47 -12.67,0.47 -25.59,0.95 -28.2,1.44 -51.71,4.07 -73.13,24.09 -7.28,8.77 -11.74,18.26 -13.48,29.54 1.19,12.28 5.21,19.16 12.7,28.81 41.22,57.27 51.68,129.63 41.23,198.32 -12.19,68.67 -51.76,126.1 -107.56,166.98 -69.67,46.18 -153.13,58.96 -234.84,43.85 -17.31,-3.63 -32.91,-9.69 -48.93,-17.09 -8.21,-3.11 -8.21,-3.11 -16.36,-0.58 -15.35,9.17 -23.04,26.06 -29.65,42.15 -3.25,20.21 -1.11,38.8 10.42,56.1 15.01,16.64 32.86,25.3 55.17,28.14 6.81,0.31 13.58,0.37 20.4,0.32 2.56,0.02 5.11,0.04 7.74,0.05 5.5,0.03 11,0.04 16.5,0.03 8.76,-0.01 17.51,0.03 26.26,0.09 18.62,0.11 37.25,0.15 55.87,0.19 21.52,0.04 43.05,0.1 64.57,0.24 8.54,0.04 17.07,0.03 25.6,0.01 62.61,0.19 121.02,8.28 170.62,49.78 2.41,1.95 4.81,3.91 7.28,5.92 27.03,24.21 45.62,61.22 50.33,97.18 0.06,5.05 0.07,10.11 0,15.16 -12.62,3.41 -25.24,6.81 -37.87,10.2 -4.29,1.15 -8.57,2.31 -12.86,3.47 -6.19,1.67 -12.37,3.33 -18.57,4.99 -3.71,1 -7.43,2 -11.26,3.03 -9.51,2.35 -18.93,4.15 -28.61,5.61 -0.48,-2.38 -0.96,-4.76 -1.46,-7.22 -6.06,-27.27 -12.75,-43.87 -35.69,-60.26 -27.05,-16.88 -55.17,-20.92 -86.52,-20.9 -2.62,-0.01 -5.23,-0.02 -7.93,-0.03 -5.67,-0.02 -11.33,-0.04 -16.99,-0.05 -9.01,-0.02 -18.02,-0.07 -27.02,-0.13 -25.61,-0.16 -51.21,-0.3 -76.82,-0.35 -15.69,-0.03 -31.38,-0.12 -47.07,-0.24 -5.94,-0.04 -11.87,-0.06 -17.81,-0.05 -55.51,0.05 -111.01,-5.32 -153.86,-44.99 -32.41,-34.83 -41.05,-71.55 -39.43,-117.93 2.53,-40.95 20.49,-78.39 49.59,-107.02 6.78,-5.22 13.26,-7.99 21.31,-10.79 -1.44,-1.7 -2.87,-3.39 -4.35,-5.14 -56.3,-68.26 -81.2,-140.3 -73.93,-229.19 7.48,-65.18 43.44,-124.29 93.44,-165.94 66.48,-50.62 147.61,-68.02 229.67,-57.79 36.29,5.24 70.56,18.69 103.9,33.53 0.13,-2.87 0.25,-5.75 0.38,-8.72 3.94,-26.71 24.39,-50.95 45.11,-67.09 33.89,-20.56 62.62,-25.19 101.59,-24.64zm-428.4 222.93c-33.09,38.78 -40.17,82.74 -37.07,132.24 5.79,42.65 28.5,80.17 62.69,106.25 44.9,29.81 93.48,39.69 146.55,29.83 49.96,-11.89 85.1,-41.67 112.84,-84.08 21.35,-37.72 21.19,-82.29 11.57,-123.2 -12.31,-42.18 -38.7,-74.93 -76.46,-97.3 -75.22,-38.35 -161.85,-24.77 -220.11,36.26z"/>
  <path class="fil1" d="M7027.89 2952.34c62.19,57.76 91.67,137.44 96.85,220.8 -1,21.02 -2,42.03 -3.03,63.68 -172.12,0 -344.24,0 -521.57,0 17.08,48.39 29.33,77.14 63.68,112.2 2.69,2.86 2.69,2.86 5.44,5.77 42.74,41.6 104.18,53.84 161.56,53.27 67.21,-2.04 130.09,-27.73 177.43,-76.13 5.66,-6.31 11.15,-12.68 16.44,-19.3 27.57,12.21 50.64,37.56 72.78,57.61 -4.08,27.44 -40.03,53.35 -60.65,69.74 -84.31,59.32 -187.61,80.66 -289.37,63.29 -64.05,-12.96 -117.48,-40.42 -165.49,-84.51 -2.5,-2.25 -5,-4.5 -7.57,-6.81 -58.1,-54.87 -87.11,-133.35 -90.03,-212.09 -1.81,-79.83 19.5,-155.42 70.3,-217.77 3.07,-3.81 3.07,-3.81 6.21,-7.71 48.95,-57.62 123.45,-95.89 198.56,-103.9 102.31,-8.06 189.61,14.57 268.47,81.85zm-382.27 84.34c-25.99,31.54 -37.18,63.41 -48.52,103.1 137.09,0 274.19,0 415.44,0 -15.58,-62.31 -44.32,-110.69 -99.12,-146.31 -89.22,-50.76 -199.29,-30.67 -267.8,43.21z"/>
  <path class="fil1" d="M5162.58 2940.78c62,52.45 102.88,123.31 111.88,204.54 6.76,87.68 -8.66,172.44 -64.31,242.56 -4.6,5.31 -9.28,10.55 -14.02,15.73 -2.56,2.8 -5.11,5.6 -7.75,8.49 -55.68,58.34 -132.44,92.94 -213.05,95.63 -94.65,1.19 -177.37,-18.11 -249.22,-82.89 -3.83,-3.4 -3.83,-3.4 -7.74,-6.87 -59.11,-55.53 -89.39,-135.05 -93.01,-215.13 -2.46,-86.63 23.72,-168.32 82.55,-232.85 1.96,-2.17 3.91,-4.34 5.93,-6.57 114.36,-120.42 322.41,-125.96 448.74,-22.61zm-345.5 74.67c-2.52,1.99 -5.03,3.98 -7.62,6.03 -43.96,36.83 -67.01,86.13 -74.26,142.56 -4.84,67.62 14.61,124.68 57.22,176.73 39.16,42.35 93.19,61.55 149.39,66.74 58.63,1.76 116.24,-18.82 159.21,-58.83 41.31,-40.22 64.91,-91.81 65.94,-149.7 -0.15,-64.78 -15.86,-119.67 -62.47,-166.38 -76.78,-73.22 -202.91,-86.96 -287.41,-17.14z"/>
  <path class="fil1" d="M4422.67 2940.78c62,52.45 102.88,123.31 111.88,204.54 6.76,87.68 -8.66,172.44 -64.31,242.56 -4.6,5.31 -9.28,10.55 -14.03,15.73 -2.56,2.8 -5.11,5.6 -7.74,8.49 -55.68,58.34 -132.44,92.94 -213.05,95.63 -94.65,1.19 -177.37,-18.11 -249.22,-82.89 -3.83,-3.4 -3.83,-3.4 -7.74,-6.87 -59.11,-55.53 -89.4,-135.05 -93.01,-215.13 -2.46,-86.63 23.72,-168.32 82.55,-232.85 1.96,-2.17 3.92,-4.34 5.93,-6.57 114.37,-120.42 322.42,-125.96 448.74,-22.61zm-345.5 74.67c-2.52,1.99 -5.03,3.98 -7.62,6.03 -43.96,36.83 -67.01,86.13 -74.26,142.56 -4.84,67.62 14.61,124.68 57.21,176.73 39.16,42.35 93.19,61.55 149.39,66.74 58.63,1.76 116.24,-18.82 159.21,-58.83 41.31,-40.22 64.91,-91.81 65.94,-149.7 -0.15,-64.78 -15.85,-119.67 -62.46,-166.38 -76.78,-73.22 -202.91,-86.96 -287.41,-17.14z"/>
  <path class="fil1" d="M8103.31 2939.4c6.59,5.97 9.83,10.23 13.02,18.43 -3.57,4.45 -3.57,4.45 -7.22,8.99 -16.95,21.15 -33.87,42.31 -50.4,63.79 -9.94,-4.42 -17.07,-10.09 -25.21,-17.25 -51.59,-41.72 -113.66,-48.32 -177.96,-43.4 -13.98,2.01 -26.61,6.19 -39.42,12.13 -2.63,1.2 -5.26,2.41 -7.97,3.65 -19.4,9.84 -30.26,21.09 -37.51,41.84 -2.8,17.79 -1.98,32.61 7.58,48.14 29.65,38.46 89.49,48.17 134.31,58.98 115.46,28 115.46,28 155.28,56.63 3.86,2.65 3.86,2.65 7.8,5.35 30.99,22.76 49.32,53.79 55.89,91.69 4.86,54.86 -3.47,102.64 -39.42,145.93 -47.07,49.67 -116.26,71.06 -183.02,73.45 -93.18,1.77 -177.48,-16.95 -250.61,-76.87 -3.11,-2.52 -3.11,-2.52 -6.28,-5.09 -4.01,-3.31 -7.97,-6.68 -11.91,-10.07 1.12,-16.25 10.44,-25.74 20.47,-37.71 1.59,-1.95 3.19,-3.9 4.83,-5.91 4.68,-5.7 9.39,-11.37 14.12,-17.03 1.5,-1.81 3.01,-3.62 4.57,-5.49 3.53,-4.24 7.06,-8.47 10.59,-12.71 9.86,4.41 17.07,10 25.2,17.06 54,43.68 122.24,60.72 190.89,54.88 33.78,-3.9 67.14,-12.81 93.21,-35.55 15.49,-20.38 18.38,-38.52 15.17,-63.68 -8.41,-20.76 -22.67,-33.06 -42.46,-42.45 -34.61,-14.36 -69.81,-24.34 -106.13,-33.35 -153.14,-38 -153.14,-38 -190.31,-99.2 -23.37,-42.99 -29.86,-90.46 -15.99,-137.93 16.59,-45.07 49.55,-80.82 92.82,-101.66 114.74,-49.54 247.46,-29.59 346.08,44.41z"/>
  <path class="fil1" d="M7585.66 2872.93c0,36.02 0,72.05 0,109.17 -15.11,1.13 -15.11,1.13 -30.52,2.28 -51.2,4.44 -106.09,15.49 -142.33,55.34 -50.06,59.63 -52.91,122.15 -53.1,196.33 -0.05,7.48 -0.11,14.96 -0.17,22.44 -0.14,19.55 -0.23,39.09 -0.31,58.64 -0.09,20 -0.23,40.01 -0.37,60.01 -0.26,39.14 -0.46,78.28 -0.63,117.43 -35.02,0 -70.05,0 -106.13,0 0,-201.14 0,-402.28 0,-609.51 35.02,0 70.05,0 106.13,0 1,30.02 2,60.04 3.03,90.97 13.51,-16.51 13.51,-16.51 27.3,-33.36 56.62,-55.89 120.19,-69.74 197.11,-69.74z"/>
  <path class="fil1" d="M3846.7 2872.93c0,36.02 0,72.05 0,109.17 -15.11,1.13 -15.11,1.13 -30.52,2.28 -51.2,4.44 -106.08,15.49 -142.33,55.34 -50.07,59.63 -52.91,122.15 -53.1,196.33 -0.05,7.48 -0.11,14.96 -0.17,22.44 -0.14,19.55 -0.24,39.09 -0.31,58.64 -0.09,20 -0.23,40.01 -0.37,60.01 -0.26,39.14 -0.46,78.28 -0.63,117.43 -35.03,0 -70.05,0 -106.13,0 0,-201.14 0,-402.28 0,-609.51 35.02,0 70.05,0 106.13,0 1,30.02 2,60.04 3.03,90.97 13.51,-16.51 13.51,-16.51 27.29,-33.36 56.62,-55.89 120.19,-69.74 197.11,-69.74z"/>
  <path class="fil1" d="M6648.65 219.57c-246.89,144.72 -444.72,424.81 -418.13,824.77 9.34,121.43 -98.67,123.31 -173.19,21.27 -134.92,-173.1 -250.41,-331.27 -237.32,-458.45 27.16,-263.83 423.68,-534.08 772.52,-447.24 55.83,17.35 122.04,24.14 56.11,59.65z"/>
  <path class="fil1" d="M7395.17 141.86c257.5,124.86 476.74,388.53 481.67,789.34 0.23,121.8 108.06,115.17 174.33,7.59 120.9,-183.18 223.59,-349.93 200.55,-475.69 -47.81,-260.88 -464.35,-499.12 -805.3,-385.11 -54.3,21.68 -119.77,33.66 -51.25,63.87z"/>
  <circle class="fil1" cx="6618.54" cy="687.22" r="106.5"/>
  <circle class="fil2" cx="6602.88" cy="722.56" r="67.23"/>
  <ellipse class="fil1" transform="matrix(1.02112 -0.49796 0.47175 0.96737 7463.23 624.987)" rx="93.75" ry="98.96"/>
  <ellipse class="fil2" transform="matrix(0.64454 -0.314318 0.297773 0.610614 7464.56 660.605)" rx="93.75" ry="98.96"/>
  <path class="fil2" d="M7165.33 1264.85c-50.31,67.02 -55.38,53.02 -113.75,6.82l-162.63 -139.36c-20.56,-13.36 -19.22,-34.1 8.74,-63.81 130.89,-90.43 261.9,-94.48 392.99,-27.34 20.27,13.79 36.83,30.05 19.89,53.32l-145.23 170.37z"/>
 </g>
</svg>
